Coordinates
version=1
nRows=29
nColumns=18
inDegrees=yes

Units are S.I. units (second, meters, Newtons, ...)
Angles are in degrees.

endheader
time	pelvis_tilt	pelvis_list	pelvis_rotation	pelvis_tx	pelvis_ty	pelvis_tz	hip_flexion_r	hip_adduction_r	hip_rotation_r	knee_angle_r	ankle_angle_r	hip_flexion_l	hip_adduction_l	hip_rotation_l	knee_angle_l	ankle_angle_l	lumbar_extension
      2.73000000	      1.98466509	      2.49446278	      3.22075794	      1.48327385	      0.88256885	     -0.25035663	      6.48016760	     -4.09027208	      0.00000000	     -7.38412986	      6.05850177	     -2.21303692	      1.92811640	      0.00000000	    -53.45664916	    -10.16496340	     -5.00000214
      2.74000000	      2.03713093	      2.58868013	      3.23647386	      1.49583880	      0.88461023	     -0.24950694	      4.57480791	     -4.10072110	      0.00000000	     -5.57110533	      5.92198046	     -0.51002954	      2.01866740	      0.00000000	    -55.66972191	     -8.48467514	     -5.00000214
      2.75000000	      2.04308523	      2.67620207	      3.27412653	      1.50808626	      0.88631837	     -0.24869177	      2.82110939	     -4.10031192	      0.00000000	     -3.90556896	      5.74145151	      1.27211950	      2.11832293	      0.00000000	    -57.61835357	     -6.27202904	     -5.00000214
      2.76000000	      2.04739009	      2.77396911	      3.33349285	      1.52023120	      0.88774269	     -0.24801643	      1.14233574	     -4.11351533	      0.00000000	     -2.37819782	      5.61600024	      3.03105887	      2.24040210	      0.00000000	    -59.23485268	     -3.83555406	     -5.00000214
      2.77000000	      1.95003457	      2.83790809	      3.43151220	      1.53183604	      0.88878728	     -0.24730598	     -0.27729181	     -4.08084678	      0.00000000	     -1.05371647	      5.48998935	      4.97035111	      2.33536838	      0.00000000	    -60.59121795	     -1.54059048	     -5.00000214
      2.78000000	      1.86422655	      2.90358259	      3.54054385	      1.54340290	      0.88959925	     -0.24669775	     -1.64057780	     -4.05140560	      0.00000000	      0.13821912	      5.47454266	      6.84789492	      2.44736448	      0.00000000	    -61.56941495	      0.52682334	     -5.00000214
      2.79000000	      1.74628451	      2.95880087	      3.65911744	      1.55474216	      0.89012936	     -0.24614001	     -2.85764835	     -4.01061058	      0.00000000	      1.14008642	      5.49673099	      8.75050636	      2.56672454	      0.00000000	    -62.21270819	      2.27409916	     -5.00000214
      2.80000000	      1.60554203	      3.00545753	      3.79649945	      1.56592847	      0.89041832	     -0.24565795	     -3.96946049	     -3.96193208	      0.00000000	      2.00583173	      5.58407956	     10.64834396	      2.69383835	      0.00000000	    -62.51037946	      3.68240060	     -5.00000214
      2.81000000	      1.43965882	      3.03627573	      3.92287372	      1.57694602	      0.89047319	     -0.24519945	     -4.96076858	     -3.89907814	      0.00000000	      2.72136072	      5.70224445	     12.53404856	      2.82512292	      0.00000000	    -62.46709088	      4.81969351	     -5.00000214
      2.82000000	      1.25995376	      3.04966418	      4.06680730	      1.58785886	      0.89032437	     -0.24478305	     -5.87808008	     -3.81538361	      0.00000000	      3.32940333	      5.87293661	     14.38465053	      2.94947396	      0.00000000	    -62.09469066	      5.71890326	     -5.00000214
      2.83000000	      1.07567791	      3.04905184	      4.21901541	      1.59871083	      0.88998771	     -0.24441678	     -6.75384469	     -3.71646749	      0.00000000	      3.87377226	      6.09926912	     16.17057240	      3.07422835	      0.00000000	    -61.37999467	      6.45037705	     -5.00000214
      2.84000000	      0.87704407	      3.02472964	      4.37209751	      1.60947596	      0.88946057	     -0.24405075	     -7.57859339	     -3.58831770	      0.00000000	      4.36640582	      6.34957719	     17.90186157	      3.18315347	      0.00000000	    -60.34799942	      7.01246943	     -5.00000214
      2.85000000	      0.68347248	      2.98314704	      4.53236262	      1.62025717	      0.88878071	     -0.24375856	     -8.38755192	     -3.43999765	      0.00000000	      4.80384108	      6.62687483	     19.51151992	      3.29192995	      0.00000000	    -58.96856175	      7.81936465	     -5.00000214
      2.86000000	      0.43309272	      2.88777099	      4.66020396	      1.63076541	      0.88795303	     -0.24330577	     -8.98353358	     -3.22544917	      0.00000000	      5.00321853	      6.75531266	     21.10963523	      3.33816654	      0.00000000	    -57.25327510	      8.01092903	     -5.00000214
      2.87000000	      0.28631204	      2.84308249	      4.84675416	      1.64177411	      0.88698806	     -0.24320882	     -9.98799926	     -3.06862081	      0.00000000	      5.70018870	      7.20938713	     22.41829771	      3.46723303	      0.00000000	    -55.22214799	      8.99376776	     -5.00000214
      2.88000000	      0.08299767	      2.73763497	      4.98778881	      1.65253338	      0.88591227	     -0.24294897	    -10.75109039	     -2.84061637	      0.00000000	      6.08617855	      7.46299061	     23.67738568	      3.51931721	      0.00000000	    -52.82249705	      9.41752063	     -5.00000214
      2.89000000	     -0.11487902	      2.60610032	      5.09466094	      1.66333584	      0.88468720	     -0.24266216	    -11.52405704	     -2.58495805	      0.00000000	      6.49347469	      7.71321941	     24.79109897	      3.53585268	      0.00000000	    -50.10985416	      9.80061998	     -5.00000214
      2.90000000	     -0.30857641	      2.45132201	      5.20142810	      1.67423693	      0.88333211	     -0.24237575	    -12.31219778	     -2.29721382	      0.00000000	      6.90896833	      7.94869358	     25.76821336	      3.51653561	      0.00000000	    -47.09943122	     10.08283075	     -5.00000214
      2.91000000	     -0.48854101	      2.28535657	      5.26288685	      1.68523764	      0.88182095	     -0.24212124	    -13.16483194	     -2.00962555	      0.00000000	      7.43364167	      8.17933682	     26.59157661	      3.47051849	      0.00000000	    -43.81925576	     10.21183628	     -5.00000214
      2.92000000	     -0.65833039	      2.10328690	      5.27310963	      1.69637642	      0.88019177	     -0.24184389	    -13.99123892	     -1.70867203	      0.00000000	      7.87066172	      8.35949129	     27.24851790	      3.38006678	      0.00000000	    -40.25431904	     10.10848935	     -5.00000214
      2.93000000	     -0.81782088	      1.87880133	      5.17912286	      1.70768087	      0.87840287	     -0.24139181	    -14.80772069	     -1.37173149	      0.00000000	      8.29282137	      8.52032408	     27.77284800	      3.18832851	      0.00000000	    -36.52650098	      9.83211829	     -5.00000214
      2.94000000	     -0.95336439	      1.65439383	      5.09804450	      1.71918684	      0.87647676	     -0.24106823	    -15.70356983	     -1.03622023	      0.00000000	      8.78371959	      8.60601140	     28.16186662	      2.98481924	      0.00000000	    -32.66601957	      8.78320344	     -5.00000214
      2.95000000	     -1.07259357	      1.38828708	      4.86241367	      1.73092211	      0.87436903	     -0.24053275	    -16.51148437	     -0.68077410	      0.00000000	      9.06985983	      8.77241134	     28.43876949	      2.66743641	      0.00000000	    -28.84977999	      8.49369371	     -5.00000214
      2.96000000	     -1.16873622	      1.13439556	      4.60710336	      1.74290159	      0.87214950	     -0.24013220	    -17.38044192	     -0.35566496	      0.00000000	      9.40549838	      8.91419135	     28.61974023	      2.34519225	      0.00000000	    -25.10049293	      7.20622056	     -5.00000214
      2.97000000	     -1.22405476	      0.84764354	      4.26200982	      1.75523774	      0.86978342	     -0.23961594	    -18.23595380	     -0.01268992	      0.00000000	      9.60005875	      9.11198052	     28.71891949	      1.93775046	      0.00000000	    -21.66217880	      6.94024807	     -5.00000214
      2.98000000	     -1.26128302	      0.53299325	      3.87429883	      1.76778273	      0.86737871	     -0.23906373	    -19.08814926	      0.34694481	      0.00000000	      9.73495836	      9.35428741	     28.77875927	      1.47760914	      0.00000000	    -18.54399391	      6.02276721	     -5.00000214
      2.99000000	     -1.26482442	      0.21763550	      3.44119748	      1.78064875	      0.86493372	     -0.23857512	    -19.92971501	      0.67967489	      0.00000000	      9.73864934	      9.54812716	     28.79776697	      1.00338889	      0.00000000	    -15.94010326	      6.00937476	     -5.00000214
      3.00000000	     -1.24020791	     -0.12380645	      2.98564051	      1.79375917	      0.86252877	     -0.23805414	    -20.76974589	      1.02610305	      0.00000000	      9.65861232	      9.76769086	     28.80086751	      0.49102057	      0.00000000	    -13.88648619	      5.91414805	     -5.00000214
      3.01000000	     -1.20566050	     -0.45773557	      2.53842267	      1.80704877	      0.86021612	     -0.23766369	    -21.56925447	      1.34234710	      0.00000000	      9.45067605	     10.01764340	     28.78995509	      0.00687862	      0.00000000	    -12.37230286	      5.79766830	     -5.00000214
